<?xml version="1.0" encoding="UTF-8"?><svg id="Calque_1" xmlns="http://www.w3.org/2000/svg" viewBox="0 0 800 488.55"><defs><style>.cls-1{fill:#0077ab;stroke-width:0px;}</style></defs><path class="cls-1" d="M592.78,155.66l-36.92,84.67-36.91-84.67-109.51,251.18c-.77,1.76.52,3.72,2.44,3.72h287.98c1.92,0,3.2-1.97,2.44-3.72l-109.52-251.18ZM467.32,371.59l51.63-118.44,36.95,84.67,36.88-84.67,51.64,118.44h-177.1Z"/><path class="cls-1" d="M426.5,281.74c0,36.1-13.87,69.4-39.06,93.77-23.9,23.11-56.6,36.36-89.7,36.36-70.99,0-128.76-57.76-128.76-128.76s57.77-128.76,128.76-128.76c39.19,0,76.8,18.42,100.63,49.28,2.47,3.19,1.89,7.86-1.28,10.38l-19.68,15.7c-1.59,1.27-3.55,1.83-5.56,1.59-1.98-.23-3.73-1.23-4.95-2.78-16.46-21.18-42.31-33.81-69.16-33.81-48.56,0-88.06,39.66-88.06,88.41s39.5,88.06,88.06,88.06c38.51,0,72.84-26.25,82.45-62.72l-81.39.3h-.03c-1.99,0-3.86-.76-5.26-2.18-1.43-1.41-2.21-3.29-2.21-5.29v-32.86l127.65-.33h.01c4.02,0,7.38,3.27,7.48,7.31.04,2.18.04,4.3.04,6.33Z"/><path class="cls-1" d="M106.92,409.85v-247.64c0-3.23,2.74-5.85,6.13-5.85h32.84v247.64c0,3.23-2.74,5.85-6.13,5.85h-32.84Z"/><path class="cls-1" d="M153.67,123.9l-.94,1.63-7.23-4.18v7.31c0,1.05-.84,1.87-1.87,1.89l-1.89-.02v-11.35l-13.45-7.76v15.53l8.21,4.74c.9.52,1.22,1.67.69,2.57l-.94,1.63-7.96-4.59v6.46c0,1.03-.84,1.87-1.87,1.87h-1.87v-8.34l-6.33,3.65c-.9.51-2.04.21-2.57-.69l-.94-1.63,9.84-5.68v-15.55l-13.47,7.78v9.48c0,1.05-.84,1.89-1.87,1.89h-1.87l-.02-9.2-5.58,3.24c-.9.51-2.06.21-2.57-.69l-.94-1.63,7.21-4.16-6.33-3.65c-.88-.52-1.2-1.67-.67-2.57l.94-1.63,9.84,5.68,13.45-7.78-13.47-7.78-8.21,4.74c-.88.52-2.04.23-2.55-.67l-.94-1.63,7.94-4.61-5.58-3.22c-.9-.52-1.22-1.67-.69-2.57l.94-1.61,7.21,4.16v-7.31c.02-1.03.84-1.87,1.89-1.87l1.85-.02v11.37l13.49,7.79v-15.59l-8.21-4.74c-.9-.51-1.22-1.65-.69-2.55l.94-1.63,7.96,4.59v-6.46c0-1.03.84-1.87,1.87-1.87h1.87v8.34l6.33-3.65c.9-.51,2.04-.21,2.57.69l.94,1.61-9.84,5.68v15.55l13.47-7.78v-9.46c0-1.03.82-1.89,1.87-1.87l1.87-.02v9.2l5.6-3.24c.9-.51,2.04-.21,2.57.69l.94,1.63-7.23,4.16,6.33,3.65c.9.53,1.2,1.67.69,2.59l-.94,1.61-9.84-5.68-13.49,7.78,13.47,7.78,8.23-4.74c.9-.51,2.04-.23,2.57.69l.94,1.63-7.96,4.59,5.6,3.24c.9.51,1.2,1.67.69,2.55Z"/></svg>